<svg xmlns="http://www.w3.org/2000/svg" width="32" height="35" viewBox="0 0 32 35" fill="none">
  <path d="M31.9303 11.2659C31.5706 12.4355 31.3199 13.9264 31.2284 15.5843H27.2975L27.1516 15.585C26.9632 15.585 26.7773 15.5396 26.6087 15.4524C26.492 15.392 26.3855 15.3125 26.2932 15.217L26 14.9135C25.7126 14.616 25.458 14.2863 25.2409 13.9305L24.848 13.2865C24.4634 12.6563 24.0253 12.063 23.5387 11.5135L22.9171 10.8116C22.2395 10.0465 21.4264 9.42313 20.5218 8.97532L20.3163 8.87362C19.7121 8.57451 19.0663 8.37551 18.4024 8.28389C17.9901 8.22699 17.5734 8.21186 17.1583 8.23872L15.8752 8.32172C14.8417 8.38859 13.8149 8.54038 12.8047 8.77567L12.0753 8.94552C10.7382 9.25692 9.43299 9.69954 8.17726 10.2673C8.10031 10.3021 8.05119 10.3789 8.05119 10.4634V23.5046C8.05119 23.5891 8.10031 23.6659 8.17726 23.7007C9.43299 24.2685 10.7382 24.7111 12.0753 25.0225L12.8047 25.1923C13.8149 25.4276 14.8417 25.5794 15.8752 25.6463L17.1583 25.7293C17.5735 25.7561 17.9901 25.741 18.4024 25.6841C19.0663 25.5925 19.7121 25.3935 20.3163 25.0944L20.5218 24.9927C21.4264 24.5449 22.2395 23.9215 22.9171 23.1564L23.5387 22.4545C24.0253 21.905 24.4634 21.3117 24.848 20.6815L25.2409 20.0375C25.458 19.6817 25.7126 19.352 26 19.0545L26.2932 18.751C26.3855 18.6555 26.492 18.576 26.6087 18.5156C26.7773 18.4284 26.9632 18.383 27.1516 18.383L31.2284 18.3955C31.3258 20.1585 31.603 21.7327 32 22.9326C29.7395 29.6137 23.6392 34.4006 16.4684 34.4006C7.37313 34.4006 0 26.6997 0 17.2003C0 7.70083 7.37313 0 16.4684 0C23.5667 0 29.6161 4.69052 31.9303 11.2659Z" fill="#044827"/>
</svg>
