<svg width="92" height="27" viewBox="0 0 92 27" fill="none" xmlns="http://www.w3.org/2000/svg">
<path d="M24.3569 8.59381C24.0826 9.48604 23.8914 10.6233 23.8216 11.888H20.823L20.7117 11.8885C20.568 11.8885 20.4262 11.8539 20.2976 11.7873C20.2086 11.7413 20.1273 11.6806 20.0569 11.6078L19.8333 11.3763C19.614 11.1493 19.4198 10.8978 19.2542 10.6264L18.9545 10.1352C18.6611 9.65447 18.3269 9.20185 17.9557 8.78272L17.4815 8.24728C16.9647 7.66365 16.3444 7.18813 15.6543 6.84653L15.4976 6.76895C15.0367 6.54079 14.5441 6.38898 14.0377 6.31909C13.7232 6.27569 13.4053 6.26415 13.0887 6.28463L12.1099 6.34795C11.3215 6.39896 10.5383 6.51475 9.76762 6.69423L9.21127 6.8238C8.19132 7.06134 7.19564 7.39897 6.23775 7.83208C6.17906 7.85862 6.14159 7.91721 6.14159 7.98163L6.14159 17.9297C6.14159 17.9942 6.17906 18.0528 6.23775 18.0793C7.19565 18.5124 8.19132 18.85 9.21127 19.0876L9.76762 19.2171C10.5383 19.3966 11.3215 19.5124 12.1099 19.5634L13.0887 19.6267C13.4053 19.6472 13.7232 19.6357 14.0377 19.5923C14.5441 19.5224 15.0367 19.3706 15.4976 19.1424L15.6543 19.0648C16.3444 18.7232 16.9647 18.2477 17.4815 17.6641L17.9557 17.1286C18.3269 16.7095 18.6611 16.2569 18.9545 15.7762L19.2542 15.2849C19.4198 15.0135 19.614 14.7621 19.8333 14.5351L20.0569 14.3036C20.1273 14.2307 20.2086 14.1701 20.2976 14.124C20.4262 14.0575 20.568 14.0229 20.7117 14.0229L23.8216 14.0324C23.8958 15.3773 24.1073 16.5781 24.4102 17.4934C22.6858 22.5899 18.0324 26.2413 12.5623 26.2413C5.62435 26.2413 0 20.367 0 13.1207C0 5.87432 5.62435 0 12.5623 0C17.9771 0 22.5916 3.57801 24.3569 8.59381Z" fill="#044827"/>
<path d="M25.8403 19.311C25.845 19.3111 25.8496 19.3112 25.8543 19.3112C26.9931 19.3112 27.9163 16.4677 27.9163 12.9602C27.9163 10.4305 27.4361 8.24617 26.7411 7.22493H31.2781V25.8578H25.8403V19.311Z" fill="#044827"/>
<path d="M38.3484 25.8578H32.9106V7.22493H38.3484V13.1023C38.4533 12.5706 38.5927 12.0438 38.7667 11.5219C39.0455 10.66 39.4258 9.8741 39.9075 9.16427C40.4145 8.45445 41.0356 7.89673 41.7707 7.49112C42.5059 7.06015 43.3678 6.84467 44.3565 6.84467C45.7508 6.84467 46.8029 7.26296 47.5127 8.09954C48.2479 8.91076 48.6155 10.0516 48.6155 11.5219C48.6155 12.5106 48.4887 13.3979 48.2352 14.1837C48.0071 14.9443 47.7789 15.502 47.5507 15.8569H42.3031C42.658 15.502 42.9622 15.033 43.2157 14.4499C43.4946 13.8669 43.634 13.3091 43.634 12.7768C43.634 12.2444 43.5073 11.8008 43.2538 11.4458C43.0003 11.0909 42.5693 10.9135 41.9609 10.9135C41.3524 10.9135 40.7694 11.129 40.2117 11.5599C39.6539 11.9655 39.1976 12.5486 38.8427 13.3091C38.5132 14.0697 38.3484 14.9696 38.3484 16.009V25.8578Z" fill="#044827"/>
<path d="M53.1772 25.0212C54.5715 25.8325 56.2193 26.2381 58.1207 26.2381C60.3515 26.2381 62.2148 25.7057 63.7105 24.641C65.2062 23.5509 66.2329 22.2073 66.7906 20.6102L62.2655 17.9864C62.0627 19.1525 61.6444 20.0651 61.0106 20.7243C60.3769 21.3834 59.4769 21.7129 58.3108 21.7129C57.5249 21.7129 56.8278 21.5228 56.2193 21.1425C55.6109 20.7623 55.1419 20.1919 54.8124 19.4314C54.4828 18.6455 54.318 17.6822 54.318 16.5414C54.318 15.4006 54.4828 14.4499 54.8124 13.6894C55.1419 12.9289 55.6109 12.3585 56.2193 11.9782C56.8278 11.5726 57.5249 11.3698 58.3108 11.3698C59.4769 11.3698 60.3769 11.712 61.0106 12.3965C61.6444 13.0556 62.0627 13.9556 62.2655 15.0964L66.7906 12.4726C66.2329 10.8755 65.2062 9.54454 63.7105 8.4798C62.2148 7.38971 60.3515 6.84467 58.1207 6.84467C56.2193 6.84467 54.5715 7.26296 53.1772 8.09954C51.7829 8.91076 50.6928 10.0516 49.907 11.5219C49.1464 12.9669 48.7662 14.6401 48.7662 16.5414C48.7662 18.4173 49.1464 20.0905 49.907 21.5608C50.6928 23.0312 51.7829 24.1847 53.1772 25.0212Z" fill="#044827"/>
<path d="M72.8449 25.8578H67.4071V0.380201H72.8449V25.8578Z" fill="#044827"/>
<path fill-rule="evenodd" clip-rule="evenodd" d="M78.4246 25.0212C79.8696 25.8325 81.5808 26.2381 83.5582 26.2381C85.6623 26.2381 87.3608 25.8451 88.6537 25.0593C89.9719 24.2734 90.9733 23.3861 91.6578 22.3974L88.3495 19.0891C88.1213 19.6215 87.8044 20.1032 87.3988 20.5341C86.9932 20.9397 86.4862 21.2566 85.8778 21.4848C85.2694 21.7129 84.5215 21.827 83.6342 21.827C82.747 21.827 81.9484 21.6622 81.2386 21.3327C80.5541 20.9778 80.0217 20.4581 79.6415 19.7736C79.3682 19.2634 79.1931 18.655 79.1162 17.9483H91.8099C91.8606 17.7202 91.8986 17.3906 91.924 16.9597C91.9747 16.5033 92 16.0724 92 15.6668C92 14.0443 91.6704 12.5613 91.0113 11.2177C90.3522 9.87409 89.3635 8.80936 88.0453 8.02349C86.727 7.23761 85.0792 6.84467 83.1019 6.84467C81.302 6.84467 79.7175 7.25028 78.3486 8.06151C76.9796 8.87274 75.9149 10.0135 75.1544 11.4839C74.3938 12.9289 74.0136 14.6147 74.0136 16.5414C74.0136 18.4427 74.3938 20.1285 75.1544 21.5989C75.9149 23.0692 77.005 24.21 78.4246 25.0212ZM79.1093 14.8302C79.2183 13.6974 79.5605 12.8228 80.1358 12.2064C80.871 11.4205 81.8723 11.0276 83.1399 11.0276C84.4835 11.0276 85.4848 11.4205 86.144 12.2064C86.6905 12.837 87.0104 13.7116 87.1038 14.8302H79.1093Z" fill="#044827"/>
<path d="M31.2909 2.72295C31.2909 4.2268 30.0718 5.4459 28.5679 5.4459C27.0641 5.4459 25.845 4.2268 25.845 2.72295C25.845 1.21911 27.0641 0 28.5679 0C30.0718 0 31.2909 1.21911 31.2909 2.72295Z" fill="#044827"/>
</svg>
